<?xml version="1.0" standalone="no"?>
<!DOCTYPE svg PUBLIC "-//W3C//DTD SVG 20010904//EN"
 "http://www.w3.org/TR/2001/REC-SVG-20010904/DTD/svg10.dtd">
<svg version="1.0" xmlns="http://www.w3.org/2000/svg"
 width="440.000000pt" height="440.000000pt" viewBox="0 0 440.000000 440.000000"
 preserveAspectRatio="xMidYMid meet">
<metadata>
Created by potrace 1.14, written by Peter Selinger 2001-2017
</metadata>
<g transform="translate(0.000000,440.000000) scale(0.100000,-0.100000)"
fill="#000000" stroke="none">
<path d="M0 2200 l0 -2200 2200 0 2200 0 0 2200 0 2200 -2200 0 -2200 0 0
-2200z m2681 840 c12 -7 19 -21 19 -41 0 -27 -125 -631 -151 -731 -12 -46 -39
-64 -71 -47 -13 7 -71 48 -131 92 l-107 79 -69 -61 c-38 -34 -74 -61 -80 -61
-8 0 -10 29 -5 108 4 59 9 112 13 118 3 6 101 95 216 199 116 103 212 192 213
197 9 22 -36 -3 -261 -144 -133 -83 -256 -160 -273 -170 -30 -18 -31 -17 -156
22 -72 23 -128 46 -132 55 -3 8 4 21 17 31 19 14 906 360 930 363 5 1 17 -4
28 -9z m-1751 -1035 l0 -35 -60 0 -60 0 0 -40 0 -40 55 0 c54 0 55 0 55 -30 0
-30 -1 -30 -55 -30 l-55 0 0 -70 0 -70 -40 0 -40 0 0 175 0 175 100 0 100 0 0
-35z m1157 24 c29 -10 30 -12 19 -40 -10 -28 -14 -30 -44 -24 -18 3 -39 8 -45
11 -20 7 -51 -21 -44 -39 3 -9 28 -27 56 -41 82 -42 107 -90 79 -151 -16 -36
-57 -55 -120 -55 -87 0 -98 6 -98 52 0 34 3 39 18 33 52 -21 86 -26 109 -16
36 16 25 42 -29 71 -60 33 -85 56 -93 87 -9 37 13 91 43 108 32 17 107 19 149
4z m163 -44 c0 -22 4 -25 35 -25 32 0 35 -2 35 -30 0 -28 -3 -30 -35 -30 l-36
0 3 -72 3 -73 35 -1 c32 0 35 -3 35 -30 0 -27 -3 -29 -44 -32 -93 -7 -111 15
-111 133 0 60 -3 75 -15 75 -23 0 -18 26 10 54 14 14 25 32 25 41 0 10 10 15
30 15 25 0 30 -4 30 -25z m-1193 -45 c5 -20 5 -20 30 0 14 11 39 20 54 20 26
0 29 -3 29 -35 0 -32 -2 -35 -29 -35 -49 0 -71 -39 -71 -126 l0 -74 -40 0 -40
0 0 128 c0 71 3 132 7 135 15 15 55 7 60 -13z m348 -12 c22 -26 41 -101 30
-119 -4 -5 -42 -9 -86 -9 -81 0 -92 -6 -62 -35 13 -14 29 -16 75 -12 l58 5 0
-28 c0 -34 -14 -40 -86 -40 -66 0 -108 20 -129 60 -32 63 -8 170 45 198 15 8
47 11 79 9 43 -3 59 -9 76 -29z m290 0 c22 -26 41 -101 30 -119 -4 -5 -42 -9
-86 -9 -81 0 -92 -6 -62 -35 13 -14 29 -16 75 -12 l58 5 0 -28 c0 -34 -14 -40
-86 -40 -66 0 -108 20 -129 60 -32 63 -8 170 45 198 15 8 47 11 79 9 43 -3 59
-9 76 -29z m866 15 c52 -31 74 -124 43 -186 -25 -51 -52 -67 -112 -67 -64 0
-84 9 -111 54 -40 65 -21 169 37 200 37 20 108 20 143 -1z m176 -3 c5 -20 5
-20 30 0 14 11 39 20 54 20 26 0 29 -3 29 -35 0 -32 -2 -35 -29 -35 -49 0 -71
-39 -71 -126 l0 -74 -40 0 -40 0 0 128 c0 71 3 132 7 135 15 15 55 7 60 -13z
m340 -4 c27 -23 28 -28 31 -135 l4 -111 -30 0 c-18 0 -32 6 -36 16 -5 14 -8
14 -28 0 -12 -9 -42 -16 -65 -16 -59 0 -85 27 -81 82 4 52 34 76 106 85 41 5
52 9 50 22 -3 13 -15 16 -60 14 -49 -1 -57 1 -66 21 -9 20 -7 25 11 34 12 6
48 11 79 11 46 1 62 -3 85 -23z m333 3 c0 -12 -8 -23 -18 -26 -13 -3 -17 -14
-17 -45 0 -53 -38 -88 -96 -88 -28 0 -39 -4 -39 -15 0 -12 13 -15 59 -15 76 0
103 -20 103 -74 0 -28 -7 -46 -26 -65 -23 -23 -36 -26 -104 -29 -67 -3 -81 -1
-104 18 -36 28 -38 71 -5 97 19 15 22 22 13 36 -8 12 -8 22 2 37 10 17 10 24
-3 43 -17 25 -20 79 -4 108 16 30 45 38 147 38 87 1 92 0 92 -20z m235 -11
c22 -26 41 -101 30 -119 -4 -5 -42 -9 -86 -9 -81 0 -92 -6 -62 -35 13 -14 29
-16 75 -12 l58 5 0 -28 c0 -34 -14 -40 -86 -40 -66 0 -108 20 -129 60 -32 63
-8 170 45 198 15 8 47 11 79 9 43 -3 59 -9 76 -29z m-2685 -469 c0 -60 -3 -80
-12 -77 -13 5 -24 128 -14 155 13 34 26 -4 26 -78z m620 1 l0 -78 -42 2 c-34
1 -45 6 -57 27 -21 38 2 83 47 87 27 3 32 7 32 28 0 14 4 22 10 19 6 -3 10
-41 10 -85z m340 5 c0 -50 -4 -85 -10 -85 -6 0 -10 35 -10 85 0 50 4 85 10 85
6 0 10 -35 10 -85z m900 -6 c0 -60 -3 -80 -12 -77 -13 5 -24 128 -14 155 13
34 26 -4 26 -78z m-2140 22 c0 -62 14 -86 47 -79 14 2 19 16 23 66 6 77 24 86
28 14 4 -70 -15 -102 -61 -102 -18 0 -38 5 -45 12 -15 15 -16 148 -2 148 6 0
10 -26 10 -59z m330 44 c0 -8 -4 -15 -10 -15 -5 0 -10 7 -10 15 0 8 5 15 10
15 6 0 10 -7 10 -15z m250 7 c0 -13 -12 -22 -22 -16 -10 6 -1 24 13 24 5 0 9
-4 9 -8z m501 -7 c0 -5 -9 -11 -21 -13 -18 -3 -20 -11 -20 -68 0 -36 -4 -64
-10 -64 -6 0 -10 28 -10 65 0 63 -1 65 -25 65 -16 0 -25 6 -25 15 0 13 11 15
55 13 30 -2 55 -7 56 -13z m964 0 c0 -5 -15 -11 -32 -13 -25 -2 -33 -8 -33
-23 0 -14 7 -19 30 -19 20 0 30 -5 30 -15 0 -10 -10 -15 -30 -15 -27 0 -30 -3
-30 -30 0 -16 -4 -30 -10 -30 -6 0 -10 34 -10 81 l0 80 43 -3 c23 -2 42 -7 42
-13z m45 7 c0 -13 -12 -22 -22 -16 -10 6 -1 24 13 24 5 0 9 -4 9 -8z m324 2
c24 -9 19 -27 -5 -21 -54 14 -65 -21 -14 -46 61 -29 41 -92 -27 -85 -40 4 -35
21 6 22 40 1 44 22 7 41 -45 23 -56 50 -31 75 21 21 37 24 64 14z m-1763 -34
c25 0 24 -16 -1 -23 -30 -8 -24 -77 6 -77 8 0 14 -4 14 -10 0 -5 -11 -10 -25
-10 -26 0 -29 6 -39 81 -4 34 14 74 22 49 2 -5 12 -10 23 -10z m1829 10 c0 -5
7 -10 15 -10 8 0 15 -4 15 -10 0 -5 -7 -10 -15 -10 -11 0 -15 -11 -15 -40 0
-29 4 -40 15 -40 8 0 15 -5 15 -11 0 -6 -10 -9 -22 -7 -19 2 -24 10 -26 48 -2
24 -8 48 -14 51 -7 5 -6 12 3 23 16 18 29 20 29 6z m-2262 -72 c2 -34 -1 -58
-7 -58 -5 0 -11 21 -13 48 -3 39 -6 47 -23 47 -17 0 -20 -8 -23 -48 -4 -61
-26 -59 -30 2 -5 61 0 67 49 66 l44 0 3 -57z m112 2 c0 -33 -4 -60 -10 -60 -6
0 -10 27 -10 60 0 33 4 60 10 60 6 0 10 -27 10 -60z m191 32 c13 -33 8 -84 -8
-90 -9 -2 -13 10 -13 42 0 24 -5 48 -12 52 -16 10 -38 -25 -38 -63 0 -18 -4
-33 -10 -33 -5 0 -10 20 -10 44 0 25 -5 48 -12 52 -16 10 -38 -25 -38 -63 0
-18 -4 -33 -10 -33 -6 0 -10 26 -10 58 l0 59 76 1 c72 0 76 -1 85 -26z m59
-33 c0 -44 -3 -60 -12 -57 -13 5 -23 80 -14 104 13 34 26 10 26 -47z m190 42
c20 -39 13 -51 -31 -51 -36 0 -40 -2 -29 -15 7 -8 23 -15 36 -15 13 0 24 -4
24 -10 0 -5 -16 -10 -35 -10 -37 0 -55 20 -55 61 0 50 68 80 90 40z m408 7 c7
-7 12 -22 12 -35 0 -20 -5 -23 -36 -23 -24 0 -34 -4 -31 -12 2 -7 18 -13 35
-13 19 0 32 -5 32 -12 0 -19 -65 -16 -80 3 -8 8 -13 28 -13 44 0 16 5 36 13
44 15 19 51 21 68 4z m170 0 c7 -7 12 -22 12 -35 0 -20 -5 -23 -36 -23 -24 0
-34 -4 -31 -12 2 -7 18 -13 35 -13 19 0 32 -5 32 -12 0 -19 -65 -16 -80 3 -8
8 -13 28 -13 44 0 16 5 36 13 44 15 19 51 21 68 4z m142 2 c0 -5 -4 -10 -10
-10 -5 0 -10 -11 -10 -25 0 -18 -7 -26 -25 -31 -34 -8 -32 -24 4 -24 30 0 45
-19 35 -45 -8 -19 -46 -29 -79 -21 -26 7 -32 31 -16 71 5 11 4 28 -1 38 -17
32 8 57 57 57 25 0 45 -4 45 -10z m68 -11 c-22 -17 -28 -29 -28 -61 0 -55 -24
-45 -28 11 -4 59 0 66 44 68 l39 3 -27 -21z m110 9 c7 -7 12 -33 12 -58 l0
-47 -44 -1 c-37 -2 -46 1 -51 18 -9 27 11 50 41 50 15 0 24 6 24 16 0 10 -8
15 -22 14 -34 -3 -40 -1 -33 10 9 14 58 13 73 -2z m190 -1 c14 -10 17 -107 2
-107 -5 0 -10 17 -10 38 0 45 -13 67 -34 59 -11 -5 -16 -19 -16 -52 0 -25 -4
-45 -10 -45 -5 0 -10 17 -10 38 0 45 -13 67 -34 59 -11 -5 -16 -19 -16 -53 0
-32 -4 -44 -12 -42 -13 5 -23 79 -15 102 5 13 135 16 155 3z m232 -48 c0 -44
-3 -60 -12 -57 -13 5 -23 80 -14 104 13 34 26 10 26 -47z m158 49 c7 -7 12
-22 12 -35 0 -20 -5 -23 -36 -23 -24 0 -34 -4 -31 -12 2 -7 18 -13 35 -13 19
0 32 -5 32 -12 0 -19 -65 -16 -80 3 -8 8 -13 28 -13 44 0 16 5 36 13 44 15 19
51 21 68 4z m366 -4 c19 -18 21 -75 4 -92 -17 -17 -63 -15 -78 4 -8 8 -13 28
-13 44 0 54 51 80 87 44z m94 -5 c-22 -17 -28 -29 -28 -61 0 -55 -24 -45 -28
11 -4 59 0 66 44 68 l39 3 -27 -21z m120 -40 l3 -57 -43 2 c-37 1 -43 4 -46
25 -4 27 12 41 46 41 15 0 22 5 19 13 -2 6 -16 11 -31 10 -25 -2 -33 7 -19 21
4 4 21 6 38 4 29 -3 30 -5 33 -59z m132 51 c0 -5 -4 -10 -10 -10 -5 0 -10 -11
-10 -25 0 -18 -7 -26 -25 -31 -34 -8 -32 -24 4 -24 30 0 45 -19 35 -45 -8 -19
-46 -29 -79 -21 -26 7 -32 31 -16 71 5 11 4 28 -1 38 -17 32 8 57 57 57 25 0
45 -4 45 -10z m100 -9 c20 -39 13 -51 -31 -51 -36 0 -40 -2 -29 -15 7 -8 23
-15 36 -15 13 0 24 -4 24 -10 0 -5 -16 -10 -35 -10 -37 0 -55 20 -55 61 0 50
68 80 90 40z"/>
<path d="M1282 1888 c-21 -21 -13 -28 33 -28 25 0 45 4 45 8 0 15 -24 32 -45
32 -12 0 -26 -5 -33 -12z"/>
<path d="M1572 1888 c-21 -21 -13 -28 33 -28 25 0 45 4 45 8 0 15 -24 32 -45
32 -12 0 -26 -5 -33 -12z"/>
<path d="M2457 1882 c-22 -24 -22 -95 -1 -116 22 -22 50 -20 68 6 46 66 -16
166 -67 110z"/>
<path d="M2962 1798 c-23 -23 -14 -48 16 -48 32 0 52 16 52 42 0 21 -49 25
-68 6z"/>
<path d="M3242 1898 c-27 -27 -3 -73 35 -66 27 5 25 72 -2 76 -11 1 -26 -3
-33 -10z"/>
<path d="M3226 1677 c-12 -9 -17 -20 -13 -31 9 -23 95 -19 111 6 13 22 6 29
-41 35 -24 3 -45 -1 -57 -10z"/>
<path d="M3522 1888 c-21 -21 -13 -28 33 -28 25 0 45 4 45 8 0 15 -24 32 -45
32 -12 0 -26 -5 -33 -12z"/>
<path d="M1507 1474 c-14 -14 -7 -65 9 -71 23 -9 45 23 35 50 -8 23 -31 33
-44 21z"/>
<path d="M1397 1474 c-13 -13 -7 -24 14 -24 11 0 19 5 17 12 -5 14 -22 21 -31
12z"/>
<path d="M1807 1474 c-14 -14 -6 -24 19 -24 16 0 24 5 22 13 -5 14 -31 21 -41
11z"/>
<path d="M1977 1474 c-14 -14 -6 -24 19 -24 16 0 24 5 22 13 -5 14 -31 21 -41
11z"/>
<path d="M2094 1469 c-10 -17 13 -36 27 -22 12 12 4 33 -11 33 -5 0 -12 -5
-16 -11z"/>
<path d="M2083 1368 c2 -7 14 -13 27 -13 13 0 25 6 28 13 2 8 -7 12 -28 12
-21 0 -30 -4 -27 -12z"/>
<path d="M2290 1414 c0 -9 7 -14 17 -12 25 5 28 28 4 28 -12 0 -21 -6 -21 -16z"/>
<path d="M2877 1474 c-14 -14 -6 -24 19 -24 16 0 24 5 22 13 -5 14 -31 21 -41
11z"/>
<path d="M3234 1466 c-11 -28 0 -61 20 -61 27 0 44 30 30 53 -15 22 -43 27
-50 8z"/>
<path d="M3445 1420 c-8 -12 20 -24 35 -15 5 3 10 10 10 16 0 12 -37 12 -45
-1z"/>
<path d="M3564 1469 c-10 -17 13 -36 27 -22 12 12 4 33 -11 33 -5 0 -12 -5
-16 -11z"/>
<path d="M3553 1368 c2 -7 14 -13 27 -13 13 0 25 6 28 13 2 8 -7 12 -28 12
-21 0 -30 -4 -27 -12z"/>
<path d="M3687 1474 c-13 -13 -7 -24 14 -24 11 0 19 5 17 12 -5 14 -22 21 -31
12z"/>
</g>
</svg>
